<svg xmlns="http://www.w3.org/2000/svg" xmlns:xlink="http://www.w3.org/1999/xlink" width="500" zoomAndPan="magnify" viewBox="0 0 375 374.999991" height="500" preserveAspectRatio="xMidYMid meet" version="1.0"><defs><g/><clipPath id="a88ad0edd0"><path d="M 6.070312 155.566406 L 174.820312 155.566406 L 174.820312 240 L 6.070312 240 Z M 6.070312 155.566406 " clip-rule="nonzero"/></clipPath><clipPath id="1022539510"><path d="M 111 169 L 130 169 L 130 187 L 111 187 Z M 111 169 " clip-rule="nonzero"/></clipPath><clipPath id="12aa593062"><path d="M 129.136719 162.011719 L 136.144531 183.394531 L 112.625 191.101562 L 105.617188 169.722656 Z M 129.136719 162.011719 " clip-rule="nonzero"/></clipPath><clipPath id="59f4aba283"><path d="M 136 147.394531 L 169.171875 248.597656 L 64.40625 282.9375 L 31.234375 181.734375 Z M 136 147.394531 " clip-rule="nonzero"/></clipPath><clipPath id="02a1beb68e"><path d="M 121 134 L 135 134 L 135 148 L 121 148 Z M 121 134 " clip-rule="nonzero"/></clipPath><clipPath id="f8b961e211"><path d="M 139.6875 137.058594 L 134.304688 151.859375 L 118.09375 145.960938 L 123.480469 131.160156 Z M 139.6875 137.058594 " clip-rule="nonzero"/></clipPath><clipPath id="e2f71ed6cb"><path d="M 149.667969 132.042969 L 124.527344 201.109375 L 53.347656 175.203125 L 78.484375 106.136719 Z M 149.667969 132.042969 " clip-rule="nonzero"/></clipPath><clipPath id="f5c29b1a6d"><path d="M 127 131 L 135 131 L 135 133 L 127 133 Z M 127 131 " clip-rule="nonzero"/></clipPath><clipPath id="635436ea5c"><path d="M 139.6875 137.058594 L 134.304688 151.859375 L 118.09375 145.960938 L 123.480469 131.160156 Z M 139.6875 137.058594 " clip-rule="nonzero"/></clipPath><clipPath id="e279512d09"><path d="M 149.667969 132.042969 L 124.527344 201.109375 L 53.347656 175.203125 L 78.484375 106.136719 Z M 149.667969 132.042969 " clip-rule="nonzero"/></clipPath><clipPath id="078b71a600"><path d="M 25 153 L 47 153 L 47 174 L 25 174 Z M 25 153 " clip-rule="nonzero"/></clipPath><clipPath id="411155c8be"><path d="M 25.613281 145.292969 L 50.023438 149.363281 L 45.460938 176.734375 L 21.046875 172.664062 Z M 25.613281 145.292969 " clip-rule="nonzero"/></clipPath><clipPath id="b1464f9dad"><path d="M 15.632812 133.335938 L 127.339844 151.964844 L 108.097656 267.371094 L -3.609375 248.742188 Z M 15.632812 133.335938 " clip-rule="nonzero"/></clipPath><clipPath id="528431aaae"><path d="M 21 157 L 23 157 L 23 168 L 21 168 Z M 21 157 " clip-rule="nonzero"/></clipPath><clipPath id="ed664a03ad"><path d="M 25.613281 145.292969 L 50.023438 149.363281 L 45.460938 176.734375 L 21.046875 172.664062 Z M 25.613281 145.292969 " clip-rule="nonzero"/></clipPath><clipPath id="f1ca3255cd"><path d="M 15.632812 133.335938 L 127.339844 151.964844 L 108.097656 267.371094 L -3.609375 248.742188 Z M 15.632812 133.335938 " clip-rule="nonzero"/></clipPath><clipPath id="2c14251622"><path d="M 74 126 L 99 126 L 99 149 L 74 149 Z M 74 126 " clip-rule="nonzero"/></clipPath><clipPath id="04a3321211"><path d="M 61.90625 137.0625 L 86.535156 110.804688 L 110.058594 132.867188 L 85.429688 159.125 Z M 61.90625 137.0625 " clip-rule="nonzero"/></clipPath><clipPath id="19217ef8bd"><path d="M -38.40625 214.652344 L 71.90625 97.039062 L 183.503906 201.707031 L 73.191406 319.320312 Z M -38.40625 214.652344 " clip-rule="nonzero"/></clipPath><clipPath id="b89e947a81"><path d="M 61 122 L 63 122 L 63 143 L 61 143 Z M 61 122 " clip-rule="nonzero"/></clipPath><clipPath id="86dde7eef1"><path d="M 61.90625 137.0625 L 86.535156 110.804688 L 110.058594 132.867188 L 85.429688 159.125 Z M 61.90625 137.0625 " clip-rule="nonzero"/></clipPath><clipPath id="bd942d1b43"><path d="M -38.40625 214.652344 L 71.90625 97.039062 L 183.503906 201.707031 L 73.191406 319.320312 Z M -38.40625 214.652344 " clip-rule="nonzero"/></clipPath><clipPath id="6e6cb5e2ee"><path d="M 62 158 L 92 158 L 92 160 L 62 160 Z M 62 158 " clip-rule="nonzero"/></clipPath><clipPath id="4ace167d24"><path d="M 61.90625 137.0625 L 86.535156 110.804688 L 110.058594 132.867188 L 85.429688 159.125 Z M 61.90625 137.0625 " clip-rule="nonzero"/></clipPath><clipPath id="bf4f4b4c60"><path d="M -38.40625 214.652344 L 71.90625 97.039062 L 183.503906 201.707031 L 73.191406 319.320312 Z M -38.40625 214.652344 " clip-rule="nonzero"/></clipPath></defs><g clip-path="url(#a88ad0edd0)"><path fill="#b4761a" d="M 64.382812 197.855469 C 63.507812 197.34375 62.644531 196.847656 61.804688 196.375 C 60.023438 195.554688 58.390625 194.695312 56.691406 194.195312 C 53.386719 193.003906 50.304688 192.425781 47.667969 191.847656 C 45.007812 191.324219 42.75 190.867188 40.851562 190.457031 C 39.019531 190.035156 37.550781 189.660156 36.402344 189.3125 C 37.128906 189.851562 37.921875 190.480469 38.851562 191.085938 C 39.414062 191.378906 40.011719 191.675781 40.648438 192.007812 C 41.300781 192.324219 41.976562 192.519531 42.679688 192.820312 C 43.40625 193.082031 44.246094 193.324219 45.0625 193.605469 C 45.496094 193.734375 45.933594 193.875 46.378906 194.015625 C 46.605469 194.09375 46.835938 194.160156 47.054688 194.238281 L 47.230469 194.285156 L 47.277344 194.308594 C 47.277344 194.308594 47.316406 194.320312 47.324219 194.320312 L 47.332031 194.324219 L 47.679688 194.425781 C 48.617188 194.683594 49.566406 194.953125 50.558594 195.234375 C 51.539062 195.5 52.570312 195.851562 53.589844 196.027344 C 55.660156 196.441406 57.777344 196.964844 60.105469 197.257812 C 61.488281 197.5 62.925781 197.679688 64.382812 197.855469 Z M 72.800781 211.210938 C 68.601562 208.582031 64.140625 207.375 60.007812 206.863281 C 55.429688 206.3125 51.195312 206.3125 47.535156 206.417969 C 43.851562 206.605469 40.636719 206.957031 37.859375 207.328125 C 33.113281 207.964844 29.621094 208.53125 27.15625 208.863281 C 27.136719 208.863281 27.128906 208.875 27.097656 208.886719 C 26.636719 209.027344 26.136719 209.183594 25.601562 209.414062 C 25.535156 209.441406 25.457031 209.476562 25.375 209.503906 C 27.707031 209.695312 30.386719 209.589844 33.304688 209.359375 C 35.53125 209.171875 38.039062 208.988281 40.5625 208.980469 C 43.050781 208.960938 45.644531 208.953125 48.300781 208.941406 C 50.828125 208.953125 53.289062 208.960938 55.675781 208.980469 C 56.859375 209 58.035156 209.015625 59.167969 209.039062 C 60.332031 209.105469 61.476562 209.160156 62.597656 209.222656 C 66.386719 209.476562 69.894531 210.179688 72.800781 211.210938 Z M 76.164062 218.761719 C 77.183594 219.042969 78.230469 219.40625 79.238281 219.910156 C 66.386719 207.414062 42.492188 214.449219 25.859375 218.238281 C 25.886719 218.597656 25.78125 218.984375 25.464844 219.324219 C 23.933594 220.953125 22.210938 222.289062 20.359375 223.417969 C 32.265625 222.789062 44.023438 220.855469 55.9375 219.984375 C 63.09375 219.46875 70.921875 219.199219 78.089844 220.964844 C 77.335938 220.636719 76.554688 220.367188 75.785156 220.160156 C 73.503906 219.542969 71.21875 219.300781 69.023438 219.199219 C 66.828125 219.085938 64.730469 219.125 62.722656 219.175781 C 60.710938 219.226562 58.796875 219.273438 56.984375 219.3125 C 49.753906 219.496094 44.109375 219.601562 39.792969 219.59375 C 35.476562 219.601562 32.5 219.582031 30.601562 219.535156 C 28.703125 219.480469 27.886719 219.402344 27.886719 219.292969 C 27.886719 219.199219 28.703125 219.085938 30.601562 218.964844 C 32.5 218.839844 35.472656 218.714844 39.769531 218.570312 C 44.082031 218.414062 49.71875 218.21875 56.957031 217.980469 C 58.761719 217.917969 60.671875 217.855469 62.6875 217.78125 C 64.691406 217.726562 66.835938 217.675781 69.089844 217.777344 C 71.34375 217.871094 73.71875 218.113281 76.164062 218.761719 Z M 79.367188 212.632812 C 80.324219 213.496094 81.234375 214.4375 82.117188 215.445312 C 81.136719 213.203125 79.886719 211.171875 78.472656 209.386719 C 77.582031 208.261719 76.640625 207.234375 75.679688 206.261719 C 72.46875 205.503906 69.214844 205.238281 65.941406 205.1875 C 65.964844 205.199219 65.972656 205.199219 65.980469 205.199219 C 66.625 205.386719 67.269531 205.617188 67.9375 205.828125 C 70.582031 206.621094 73.167969 208.03125 75.71875 209.71875 C 76.941406 210.613281 78.144531 211.605469 79.367188 212.632812 Z M 84.402344 227.296875 C 84.214844 226.910156 84.03125 226.53125 83.839844 226.167969 C 74.699219 221.46875 63.148438 222.144531 53.261719 223.121094 C 40.203125 224.402344 27.261719 226.414062 14.113281 226.511719 C 13.15625 227.859375 12.28125 229.257812 11.472656 230.6875 C 14.800781 230.96875 18.285156 230.753906 21.585938 230.820312 C 29.890625 230.996094 38.191406 231.164062 46.488281 231.316406 C 58.339844 231.539062 70.207031 231.855469 82.058594 231.972656 C 82.117188 231.742188 82.183594 231.519531 82.261719 231.296875 C 72.746094 230.0625 64.730469 229.914062 58.171875 229.886719 C 51.441406 229.90625 46.199219 229.933594 42.195312 229.945312 C 38.191406 229.960938 35.421875 229.90625 33.664062 229.828125 C 31.902344 229.757812 31.132812 229.664062 31.132812 229.566406 C 31.132812 229.472656 31.902344 229.367188 33.664062 229.269531 C 35.421875 229.164062 38.175781 229.0625 42.171875 228.921875 C 46.175781 228.78125 51.425781 228.601562 58.171875 228.539062 C 64.839844 228.503906 73.003906 228.601562 82.789062 229.894531 C 82.820312 229.820312 82.871094 229.730469 82.910156 229.640625 C 75.488281 228.417969 69.175781 228.167969 63.949219 228 C 58.351562 227.859375 53.949219 227.867188 50.609375 227.792969 C 43.90625 227.652344 41.355469 227.472656 41.355469 227.269531 C 41.355469 227.074219 43.90625 226.886719 50.609375 226.753906 C 53.953125 226.707031 58.335938 226.589844 63.976562 226.65625 C 68.714844 226.746094 74.382812 226.9375 80.960938 227.875 C 79.371094 227.285156 77.730469 227 76.203125 226.773438 C 73.726562 226.449219 71.386719 226.296875 69.339844 226.078125 C 65.226562 225.710938 62.027344 225.257812 59.574219 225.207031 C 54.65625 224.925781 52.78125 224.695312 52.78125 224.492188 C 52.78125 224.289062 54.65625 224.167969 59.613281 224.183594 C 62.097656 224.105469 65.316406 224.441406 69.46875 224.746094 C 71.546875 224.925781 73.804688 225.042969 76.382812 225.363281 C 77.671875 225.542969 79.019531 225.757812 80.414062 226.171875 C 81.621094 226.484375 82.832031 227.035156 84.011719 227.769531 C 84.136719 227.605469 84.261719 227.449219 84.402344 227.296875 Z M 86.3125 218.761719 C 86.496094 215.792969 86.453125 212.949219 86.167969 210.269531 C 84.65625 208.371094 82.425781 206.609375 79.75 205.199219 C 79.027344 204.8125 78.28125 204.46875 77.507812 204.125 C 78.597656 205.1875 79.664062 206.328125 80.683594 207.597656 C 82.519531 209.898438 84.175781 212.578125 85.339844 215.648438 C 85.726562 216.664062 86.050781 217.699219 86.3125 218.761719 Z M 92.078125 234.582031 C 91.335938 232.589844 90.59375 230.511719 89.09375 229.203125 C 86.800781 227.195312 85.359375 230.699219 84.6875 233.703125 C 86.96875 232.726562 89.578125 233.585938 92.078125 234.582031 Z M 127.1875 223.769531 C 129.574219 223.785156 131.953125 223.824219 134.328125 223.886719 C 131.871094 223.527344 129.40625 223.246094 126.917969 223.132812 C 120.527344 222.8125 113.773438 222.542969 107.460938 223.785156 C 104.574219 224.359375 101.9375 225.335938 99.378906 226.53125 C 108.585938 225.015625 117.777344 223.71875 127.1875 223.769531 Z M 147.625 202.011719 C 147.144531 201.601562 146.660156 201.199219 146.179688 200.804688 C 143.898438 198.882812 141.621094 197.042969 139.046875 195.542969 C 136.355469 193.980469 134.125 194.550781 131.140625 194.695312 C 129.523438 194.78125 128.054688 194.914062 126.878906 194.949219 C 125.625 195.140625 124.242188 195.351562 122.683594 195.605469 C 120.363281 195.988281 117.683594 196.453125 114.671875 197.15625 C 111.667969 197.90625 108.277344 198.808594 104.757812 200.394531 C 101.257812 201.972656 97.527344 204.203125 94.59375 207.789062 C 93.535156 209.046875 92.632812 210.488281 91.875 212.074219 C 91.429688 214.574219 90.96875 217.1875 90.488281 219.902344 C 92.183594 217.574219 94.019531 215.378906 96.367188 213.644531 C 100.792969 210.398438 105.660156 207.828125 110.894531 206.160156 C 119.964844 203.25 129.765625 202.472656 139.175781 202.265625 C 140.667969 202.160156 142.351562 202.109375 144.160156 202.078125 C 145.269531 202.058594 146.429688 202.039062 147.625 202.011719 Z M 159.84375 225.757812 C 157.652344 224.476562 155.496094 223.140625 154.054688 220.953125 C 153.90625 220.746094 153.839844 220.53125 153.824219 220.316406 C 153.789062 220.261719 153.761719 220.199219 153.746094 220.132812 C 152.996094 217.320312 152.019531 214.59375 150.992188 211.886719 C 139.570312 209.640625 127.558594 209.363281 116.074219 211.410156 C 106.78125 213.066406 97.617188 216.328125 91.890625 224.117188 C 93.1875 223.027344 94.441406 221.917969 95.730469 220.890625 C 98.007812 219.273438 100.207031 218.058594 102.382812 216.90625 C 106.691406 214.625 110.933594 213.015625 114.898438 212.363281 C 122.671875 210.921875 128.871094 210.3125 133.601562 210.460938 C 138.335938 210.605469 141.582031 211.230469 143.574219 211.832031 C 145.5625 212.472656 146.390625 212.796875 146.363281 212.894531 C 146.324219 212.988281 145.4375 212.847656 143.4375 212.382812 C 141.445312 211.953125 138.242188 211.492188 133.59375 211.484375 C 128.945312 211.484375 122.859375 212.167969 115.136719 213.679688 C 111.320312 214.34375 107.28125 215.910156 103.035156 218.171875 C 100.917969 219.300781 98.675781 220.558594 96.609375 222.035156 C 95.527344 222.886719 94.472656 223.824219 93.351562 224.785156 C 97.332031 222.398438 101.132812 220.277344 104.84375 218.695312 C 107.164062 217.675781 109.472656 216.933594 111.695312 216.332031 C 113.925781 215.816406 116.074219 215.398438 118.109375 215.191406 C 122.203125 214.71875 125.847656 214.691406 129.0625 214.703125 C 132.265625 214.71875 135.066406 214.730469 137.503906 214.828125 C 142.359375 215.023438 145.707031 215.601562 147.789062 216.113281 C 149.835938 216.6875 150.691406 217.03125 150.691406 217.125 C 150.613281 217.46875 147.109375 215.996094 137.46875 215.855469 C 135.054688 215.832031 132.277344 215.871094 129.0625 215.910156 C 125.863281 215.949219 122.257812 216.015625 118.28125 216.519531 C 116.277344 216.742188 114.195312 217.164062 112.035156 217.675781 C 109.894531 218.277344 107.664062 219.003906 105.402344 220.007812 C 105.375 220.019531 105.34375 220.03125 105.316406 220.046875 C 109.921875 218.492188 114.234375 217.550781 118.160156 217.199219 C 125.753906 216.421875 131.699219 217.199219 136.125 217.980469 C 137.234375 218.199219 138.257812 218.40625 139.191406 218.585938 C 140.117188 218.839844 140.960938 219.058594 141.734375 219.265625 C 142.492188 219.480469 143.183594 219.660156 143.804688 219.832031 C 144.40625 220.046875 144.949219 220.222656 145.421875 220.386719 C 147.285156 221.042969 148.074219 221.378906 148.035156 221.476562 C 148.007812 221.566406 147.160156 221.40625 145.257812 220.925781 C 144.785156 220.8125 144.238281 220.664062 143.621094 220.503906 C 143.003906 220.367188 142.3125 220.222656 141.542969 220.058594 C 140.769531 219.878906 139.925781 219.699219 139.003906 219.496094 C 138.066406 219.339844 137.058594 219.175781 135.960938 218.992188 C 131.574219 218.34375 125.710938 217.699219 118.300781 218.53125 C 114.878906 218.878906 111.15625 219.671875 107.171875 220.9375 C 112.625 220.152344 118.121094 219.878906 123.632812 220.085938 C 134.238281 220.480469 144.339844 223.257812 154.65625 225.152344 C 156.390625 225.324219 158.109375 225.527344 159.84375 225.757812 Z M 131.320312 231.5 C 142.886719 231.5 154.628906 231.5 166.046875 231.5 C 165.328125 230.792969 164.585938 230.105469 163.863281 229.410156 C 163.847656 229.398438 163.824219 229.410156 163.796875 229.410156 C 160.941406 229.113281 158.101562 228.640625 155.28125 228.101562 C 145.957031 227.074219 136.574219 226.683594 127.1875 226.667969 C 115.746094 226.644531 104.640625 228.5625 93.410156 230.457031 C 93.585938 230.832031 93.761719 231.21875 93.921875 231.605469 C 96.609375 231.5 98.554688 231.460938 100.765625 231.304688 C 103.09375 231.101562 105.238281 230.898438 107.355469 230.714844 C 109.472656 230.507812 111.480469 230.304688 113.398438 230.105469 C 115.332031 229.960938 117.160156 229.828125 118.894531 229.703125 C 119.761719 229.613281 120.605469 229.625 121.421875 229.613281 C 122.238281 229.605469 123.039062 229.605469 123.808594 229.59375 C 125.355469 229.585938 126.8125 229.578125 128.179688 229.566406 C 130.910156 229.558594 133.296875 229.527344 135.359375 229.59375 C 139.472656 229.679688 142.3125 229.78125 144.121094 229.875 C 145.941406 229.972656 146.722656 230.070312 146.722656 230.175781 C 146.722656 230.269531 145.941406 230.359375 144.121094 230.4375 C 142.3125 230.511719 139.472656 230.578125 135.359375 230.621094 C 133.289062 230.621094 130.921875 230.714844 128.195312 230.777344 C 126.839844 230.804688 125.386719 230.832031 123.859375 230.871094 C 123.089844 230.894531 122.300781 230.910156 121.476562 230.921875 C 120.660156 230.9375 119.828125 230.9375 118.972656 231.035156 C 117.941406 231.125 116.859375 231.21875 115.757812 231.304688 C 120.960938 231.34375 126.167969 231.5 131.320312 231.5 Z M 170.511719 235.933594 C 169.917969 235.546875 169.261719 235.222656 168.683594 234.84375 C 168.488281 234.714844 168.339844 234.5625 168.234375 234.402344 C 156.226562 234.402344 144.890625 234.402344 133.203125 234.402344 C 120.738281 234.402344 107.84375 233.472656 95.484375 235.367188 C 95.578125 235.558594 95.664062 235.746094 95.761719 235.929688 C 95.808594 236.003906 95.84375 236.09375 95.878906 236.171875 C 120.75 236.199219 145.640625 237.007812 170.511719 235.933594 Z M 9.152344 234.378906 C 9.152344 234.378906 9.144531 234.402344 9.132812 234.402344 C 9.152344 234.402344 9.175781 234.390625 9.191406 234.367188 C 9.269531 234.367188 9.527344 234.402344 9.527344 234.402344 C 9.550781 234.402344 9.570312 234.40625 9.585938 234.40625 C 9.722656 234.390625 9.855469 234.378906 10.007812 234.402344 C 13.773438 234.902344 17.800781 234.609375 21.585938 234.6875 C 29.890625 234.863281 38.191406 235.03125 46.488281 235.183594 C 58.003906 235.40625 69.535156 235.703125 81.050781 235.824219 C 81.050781 235.519531 81.050781 235.183594 81.050781 234.855469 C 69.535156 234.738281 58.003906 234.441406 46.488281 234.214844 C 38.191406 234.058594 29.890625 233.90625 21.585938 233.730469 C 17.835938 233.652344 13.832031 233.933594 10.097656 233.453125 C 9.992188 233.53125 9.867188 233.597656 9.742188 233.652344 C 9.691406 233.714844 9.648438 233.78125 9.585938 233.839844 C 9.355469 234.050781 9.28125 234.292969 9.191406 234.367188 L 9.179688 234.367188 C 9.175781 234.367188 9.164062 234.390625 9.152344 234.378906 Z M 39.925781 212.15625 C 37.691406 212.152344 35.585938 212.246094 33.46875 212.324219 C 28.90625 212.511719 24.558594 212.355469 21.164062 210.960938 L 18.546875 209.875 L 21.113281 208.914062 C 24.03125 207.820312 26.496094 207.441406 28.222656 207.25 C 28.265625 207.25 28.292969 207.25 28.332031 207.25 C 30.625 206.6875 33.636719 206.015625 37.539062 205.300781 C 40.339844 204.796875 43.609375 204.300781 47.40625 204.011719 C 49.351562 203.90625 51.4375 203.828125 53.644531 203.839844 C 53.773438 203.75 53.914062 203.691406 54.105469 203.691406 C 60.507812 203.625 66.910156 203.046875 73.191406 204.011719 C 73.140625 203.960938 73.082031 203.90625 73.027344 203.855469 C 72.238281 203.199219 71.4375 202.582031 70.652344 201.992188 C 69.429688 201.75 68.179688 201.558594 66.894531 201.441406 C 64.382812 201.140625 61.941406 200.859375 59.585938 200.40625 C 57.226562 200.066406 54.941406 199.449219 52.757812 198.921875 C 51.65625 198.675781 50.691406 198.292969 49.707031 197.972656 C 48.738281 197.640625 47.792969 197.3125 46.882812 197.003906 L 46.542969 196.886719 L 46.3125 196.800781 L 46.148438 196.734375 C 45.929688 196.644531 45.710938 196.5625 45.496094 196.484375 C 45.0625 196.308594 44.652344 196.132812 44.234375 195.972656 C 43.390625 195.621094 42.589844 195.3125 41.800781 194.949219 C 41.023438 194.550781 40.222656 194.195312 39.597656 193.796875 C 39.277344 193.59375 38.980469 193.390625 38.695312 193.195312 C 38.546875 193.097656 38.417969 193.003906 38.273438 192.90625 L 38.058594 192.773438 L 37.960938 192.695312 L 37.933594 192.671875 L 37.867188 192.632812 C 37.847656 192.617188 37.800781 192.578125 37.800781 192.578125 C 36.734375 191.660156 35.972656 190.789062 35.378906 190.121094 C 35.089844 189.796875 34.824219 189.496094 34.59375 189.222656 C 34.351562 188.972656 34.144531 188.75 33.980469 188.570312 C 33.902344 188.480469 33.84375 188.402344 33.789062 188.332031 C 33.289062 188.101562 33.074219 187.945312 33.101562 187.851562 C 33.164062 187.660156 34.222656 187.742188 36.546875 188.179688 C 37.730469 188.355469 39.246094 188.574219 41.136719 188.855469 C 43.039062 189.121094 45.320312 189.4375 48.023438 189.8125 C 50.734375 190.277344 53.902344 190.75 57.445312 191.914062 C 59.238281 192.386719 61.054688 193.257812 63 194.117188 C 64.839844 195.101562 66.765625 196.15625 68.734375 197.410156 C 69.390625 197.816406 70.042969 198.253906 70.71875 198.695312 C 70.820312 198.714844 70.9375 198.734375 71.050781 198.765625 C 72.300781 199.011719 73.515625 199.332031 74.6875 199.707031 C 77.035156 200.457031 79.234375 201.421875 81.203125 202.570312 C 82.746094 203.460938 84.160156 204.484375 85.398438 205.609375 C 85.207031 204.804688 85.003906 204.011719 84.828125 203.238281 C 84.40625 201.972656 83.996094 200.742188 83.601562 199.554688 C 83.089844 198.386719 82.597656 197.265625 82.117188 196.164062 C 81.621094 195.0625 81.023438 194.007812 80.511719 192.976562 C 78.375 188.851562 76.296875 185.242188 74.484375 182.023438 C 72.660156 178.8125 71.089844 175.992188 69.742188 173.53125 C 64.460938 163.628906 63.269531 159.464844 63.566406 159.339844 C 64.011719 159.148438 65.835938 162.964844 71.523438 172.511719 C 72.964844 174.890625 74.640625 177.644531 76.554688 180.796875 C 78.460938 183.976562 80.628906 187.550781 82.859375 191.714844 C 83.40625 192.773438 84.011719 193.8125 84.558594 194.953125 C 85.082031 196.117188 85.628906 197.304688 86.167969 198.535156 C 86.609375 199.808594 87.082031 201.101562 87.527344 202.445312 C 87.855469 203.828125 88.265625 205.222656 88.535156 206.6875 C 88.742188 207.8125 88.902344 208.960938 89.023438 210.140625 C 89.105469 210.285156 89.160156 210.4375 89.226562 210.582031 C 90.503906 203.496094 91.660156 197.246094 92.679688 191.738281 C 94.335938 182.785156 95.652344 175.8125 96.71875 170.503906 C 98.839844 159.867188 99.898438 155.890625 100.292969 155.957031 C 100.6875 156.035156 100.332031 160.148438 98.726562 170.859375 C 97.929688 176.210938 96.820312 183.21875 95.320312 192.195312 C 94.644531 196.144531 93.894531 200.5 93.066406 205.25 C 96.3125 201.652344 100.179688 199.449219 103.699219 197.9375 C 107.492188 196.320312 111.03125 195.464844 114.15625 194.808594 C 117.28125 194.183594 120.035156 193.824219 122.414062 193.566406 C 124.40625 193.351562 126.128906 193.21875 127.621094 193.121094 C 129.378906 193.003906 130.554688 192.761719 132.339844 192.914062 C 134.0625 193.054688 135.820312 192.800781 137.539062 192.671875 C 137.871094 192.65625 138.511719 192.480469 138.78125 192.507812 C 142.222656 192.886719 145.726562 196.183594 148.265625 198.296875 C 149.863281 199.640625 151.367188 200.945312 152.828125 202.011719 L 156.339844 204.570312 L 152.085938 204.902344 C 151.710938 204.929688 151.347656 204.929688 150.972656 204.953125 C 150.789062 205.035156 150.574219 205.085938 150.324219 205.085938 C 138.78125 205.085938 126.140625 204.699219 114.6875 208.019531 C 112.617188 208.632812 110.570312 209.308594 108.578125 210.109375 C 110.777344 209.476562 113.03125 208.980469 115.304688 208.609375 C 127.570312 206.648438 139.953125 206.71875 152.15625 209.160156 C 152.523438 209.242188 152.78125 209.414062 152.949219 209.644531 C 153.175781 209.800781 153.367188 210.03125 153.484375 210.335938 C 154.628906 213.296875 155.703125 216.285156 156.53125 219.359375 C 156.542969 219.40625 156.542969 219.457031 156.554688 219.507812 C 158.480469 222.402344 162.304688 223.578125 165.011719 225.578125 C 165.53125 225.972656 165.683594 226.539062 165.609375 227.0625 C 167.097656 228.539062 168.625 229.960938 169.996094 231.558594 C 170.648438 231.730469 170.980469 232.292969 171.003906 232.882812 C 172.386719 233.714844 173.824219 234.535156 174.507812 236.082031 C 174.828125 236.804688 174.726562 237.636719 173.988281 238.070312 C 173.964844 238.082031 173.9375 238.082031 173.921875 238.105469 C 173.695312 238.460938 173.3125 238.722656 172.777344 238.75 C 147.132812 239.988281 121.460938 239.09375 95.800781 239.066406 C 95.335938 239.066406 94.980469 238.886719 94.753906 238.617188 C 94.605469 238.617188 94.464844 238.59375 94.300781 238.539062 C 91.335938 237.519531 87.03125 234.351562 84.472656 237.519531 C 84.429688 237.582031 84.378906 237.617188 84.328125 237.667969 C 84.191406 238.257812 83.753906 238.757812 82.972656 238.75 C 70.8125 238.644531 58.648438 238.3125 46.488281 238.082031 C 38.191406 237.925781 29.890625 237.773438 21.585938 237.589844 C 17.800781 237.507812 13.773438 237.800781 10.007812 237.300781 C 9.964844 237.289062 9.921875 237.277344 9.878906 237.273438 C 9.773438 237.289062 9.660156 237.300781 9.527344 237.300781 C 8.199219 237.273438 6.550781 236.6875 6.269531 235.191406 C 6.015625 233.855469 6.578125 232.660156 7.546875 231.761719 C 7.628906 231.6875 7.710938 231.625 7.800781 231.570312 C 7.828125 231.410156 7.875 231.257812 7.964844 231.089844 C 9.214844 228.753906 10.53125 226.453125 12.132812 224.328125 C 12.351562 224.039062 12.621094 223.863281 12.921875 223.777344 C 12.980469 223.738281 13.0625 223.699219 13.148438 223.660156 C 17.285156 222.121094 21.011719 220.394531 22.847656 216.21875 C 25.402344 216.046875 28.371094 214.703125 30.9375 214.113281 C 33.71875 213.472656 37.078125 212.15625 39.925781 212.15625 " fill-opacity="1" fill-rule="nonzero"/></g><path fill="#b4761a" d="M 9.179688 234.367188 L 9.191406 234.367188 C 9.175781 234.390625 9.152344 234.402344 9.132812 234.402344 C 9.144531 234.402344 9.152344 234.378906 9.152344 234.378906 C 9.164062 234.390625 9.175781 234.367188 9.179688 234.367188 " fill-opacity="1" fill-rule="nonzero"/><g clip-path="url(#1022539510)"><g clip-path="url(#12aa593062)"><g clip-path="url(#59f4aba283)"><path fill="#b4761a" d="M 118.847656 180.085938 C 118.902344 180.113281 118.953125 180.128906 119.023438 180.148438 C 119.078125 180.097656 119.109375 180.058594 119.128906 179.984375 C 119.222656 180 119.34375 179.824219 119.296875 179.738281 C 119.378906 179.703125 119.523438 179.558594 119.476562 179.453125 C 119.550781 179.425781 119.574219 179.375 119.613281 179.3125 C 120.285156 180.597656 119.488281 182.226562 119.816406 183.628906 C 119.929688 184.109375 120.007812 184.15625 120.378906 184.410156 C 120.84375 184.324219 121.128906 184.238281 121.515625 184.566406 C 122.359375 185.28125 122.277344 187.027344 122.902344 186.851562 C 123.144531 186.785156 122.980469 186.011719 123 185.347656 C 123.015625 184.769531 122.992188 182.910156 123.804688 182.851562 C 123.84375 182.851562 123.882812 182.851562 123.921875 182.851562 C 123.925781 182.390625 123.996094 181.925781 124.550781 181.902344 C 124.34375 181.34375 124.15625 180.773438 123.949219 180.214844 C 124.648438 180.507812 125.546875 181.0625 126.023438 180.542969 C 126.351562 180.191406 126.164062 180.460938 126.550781 180.242188 C 127.058594 179.957031 127.007812 179.636719 127.148438 179.453125 C 127.308594 179.238281 127.945312 179.097656 128.289062 178.167969 C 128.472656 177.664062 128.980469 177.371094 129.238281 176.902344 C 129.34375 176.703125 129.359375 176.527344 129.335938 176.308594 C 130.703125 175.191406 127.984375 173.886719 126.988281 173.929688 C 126.117188 173.96875 125.074219 174.21875 124.414062 174.445312 C 123.136719 174.878906 121.964844 175.535156 120.824219 176.238281 C 120.832031 176.148438 120.773438 176.101562 120.695312 176.0625 C 120.941406 176.105469 121.121094 175.679688 120.851562 175.617188 L 120.84375 175.570312 C 121.515625 175.199219 121.691406 175.644531 122.492188 174.976562 C 122.546875 174.933594 122.558594 174.886719 122.554688 174.8125 C 122.542969 174.808594 122.535156 174.804688 122.523438 174.800781 C 122.261719 174.976562 122.382812 175.316406 121.367188 175.378906 C 121.164062 175.394531 121.011719 175.453125 120.839844 175.570312 C 120.8125 175.433594 120.796875 175.316406 120.828125 175.183594 L 120.726562 175.140625 C 120.652344 175.261719 120.566406 175.335938 120.453125 175.417969 C 120.40625 175.214844 120.335938 175.070312 120.195312 174.917969 C 119.492188 174.183594 119.808594 174.015625 119.734375 173.710938 C 119.726562 173.707031 119.71875 173.703125 119.707031 173.699219 C 119.652344 173.75 119.632812 173.792969 119.640625 173.859375 C 119.773438 174.894531 120.207031 174.6875 120.449219 175.417969 L 120.410156 175.445312 C 120.171875 175.308594 120.015625 175.742188 120.222656 175.875 C 120.140625 175.855469 120.066406 175.847656 120.011719 175.921875 C 119.648438 174.625 119.234375 173.351562 118.589844 172.164062 C 118.257812 171.554688 117.664062 170.660156 117.050781 170.042969 C 116.351562 169.335938 113.46875 168.445312 113.714844 170.195312 C 113.546875 170.339844 113.4375 170.480469 113.382812 170.699219 C 113.25 171.214844 113.425781 171.777344 113.21875 172.269531 C 112.835938 173.1875 113.210938 173.722656 113.183594 173.988281 C 113.160156 174.21875 112.90625 174.417969 113.085938 174.972656 C 113.21875 175.394531 113.269531 175.070312 113.265625 175.554688 C 113.265625 176.253906 114.300781 176.460938 115.015625 176.71875 C 114.480469 176.988281 113.957031 177.277344 113.425781 177.550781 C 113.820312 177.941406 113.554688 178.332031 113.242188 178.675781 C 113.269531 178.699219 113.300781 178.726562 113.328125 178.753906 C 113.886719 179.347656 112.605469 180.695312 112.226562 181.128906 C 111.789062 181.632812 111.144531 182.089844 111.273438 182.304688 C 111.613281 182.855469 112.742188 181.515625 113.84375 181.566406 C 114.355469 181.585938 114.503906 181.84375 114.785156 182.222656 C 115.230469 182.285156 115.320312 182.308594 115.730469 182.027344 C 116.921875 181.222656 117.445312 179.488281 118.8125 178.996094 C 118.792969 179.070312 118.777344 179.125 118.8125 179.195312 C 118.710938 179.238281 118.71875 179.445312 118.753906 179.523438 C 118.664062 179.558594 118.632812 179.769531 118.710938 179.820312 C 118.675781 179.886719 118.671875 179.9375 118.675781 180.011719 C 118.738281 180.046875 118.789062 180.066406 118.847656 180.085938 " fill-opacity="1" fill-rule="evenodd"/></g></g></g><g clip-path="url(#02a1beb68e)"><g clip-path="url(#f8b961e211)"><g clip-path="url(#e2f71ed6cb)"><path fill="#b4761a" d="M 126.496094 142.503906 C 126.515625 142.539062 126.535156 142.570312 126.566406 142.613281 C 126.617188 142.605469 126.652344 142.597656 126.691406 142.566406 C 126.734375 142.613281 126.875 142.570312 126.886719 142.503906 C 126.945312 142.519531 127.085938 142.503906 127.105469 142.429688 C 127.15625 142.445312 127.191406 142.425781 127.238281 142.40625 C 127.054688 143.390625 125.933594 143.9375 125.511719 144.835938 C 125.367188 145.148438 125.390625 145.207031 125.484375 145.503906 C 125.773438 145.652344 125.960938 145.726562 126.03125 146.070312 C 126.183594 146.816406 125.394531 147.730469 125.808594 147.902344 C 125.96875 147.96875 126.207031 147.476562 126.5 147.125 C 126.753906 146.820312 127.535156 145.796875 127.996094 146.113281 C 128.019531 146.128906 128.039062 146.144531 128.058594 146.164062 C 128.261719 145.914062 128.496094 145.691406 128.804688 145.914062 C 128.929688 145.523438 129.070312 145.132812 129.195312 144.742188 C 129.449219 145.199219 129.699219 145.882812 130.175781 145.804688 C 130.503906 145.75 130.289062 145.820312 130.589844 145.863281 C 130.988281 145.925781 131.09375 145.730469 131.246094 145.6875 C 131.425781 145.640625 131.832031 145.835938 132.410156 145.476562 C 132.722656 145.28125 133.125 145.339844 133.460938 145.191406 C 133.605469 145.128906 133.6875 145.039062 133.769531 144.910156 C 134.980469 144.886719 134.066406 143.019531 133.511719 142.621094 C 133.023438 142.273438 132.355469 141.964844 131.902344 141.804688 C 131.03125 141.5 130.117188 141.355469 129.199219 141.253906 C 129.242188 141.207031 129.230469 141.15625 129.207031 141.105469 C 129.320312 141.230469 129.597656 141.074219 129.480469 140.929688 L 129.496094 140.898438 C 130.015625 140.984375 129.921875 141.300781 130.640625 141.277344 C 130.6875 141.277344 130.714844 141.257812 130.742188 141.214844 C 130.738281 141.210938 130.734375 141.203125 130.730469 141.195312 C 130.515625 141.179688 130.4375 141.414062 129.859375 141.019531 C 129.742188 140.9375 129.636719 140.90625 129.496094 140.898438 C 129.535156 140.8125 129.578125 140.742188 129.652344 140.679688 L 129.613281 140.617188 C 129.523438 140.652344 129.445312 140.652344 129.351562 140.648438 C 129.410156 140.519531 129.433594 140.410156 129.421875 140.269531 C 129.355469 139.570312 129.597656 139.617188 129.6875 139.417969 C 129.683594 139.414062 129.679688 139.40625 129.679688 139.402344 C 129.628906 139.402344 129.597656 139.417969 129.574219 139.460938 C 129.207031 140.078125 129.527344 140.148438 129.347656 140.648438 L 129.316406 140.644531 C 129.246094 140.472656 128.976562 140.640625 129.03125 140.800781 C 128.996094 140.753906 128.957031 140.71875 128.898438 140.734375 C 129.253906 139.878906 129.570312 139.007812 129.726562 138.089844 C 129.808594 137.617188 129.867188 136.878906 129.800781 136.285156 C 129.722656 135.601562 128.542969 133.894531 127.933594 134.949219 C 127.78125 134.953125 127.660156 134.984375 127.539062 135.078125 C 127.246094 135.304688 127.105469 135.683594 126.78125 135.863281 C 126.1875 136.199219 126.160156 136.648438 126.03125 136.78125 C 125.921875 136.898438 125.699219 136.898438 125.558594 137.273438 C 125.453125 137.5625 125.617188 137.40625 125.410156 137.667969 C 125.113281 138.046875 125.585938 138.597656 125.859375 139.042969 C 125.457031 138.964844 125.050781 138.898438 124.648438 138.820312 C 124.695312 139.199219 124.386719 139.296875 124.070312 139.351562 C 124.074219 139.378906 124.078125 139.40625 124.085938 139.433594 C 124.132812 139.992188 122.867188 140.179688 122.476562 140.253906 C 122.027344 140.339844 121.484375 140.3125 121.464844 140.488281 C 121.414062 140.929688 122.589844 140.683594 123.164062 141.179688 C 123.433594 141.40625 123.402344 141.609375 123.394531 141.9375 C 123.609375 142.160156 123.648438 142.207031 123.988281 142.230469 C 124.976562 142.300781 125.996094 141.582031 126.941406 141.894531 C 126.902344 141.929688 126.867188 141.949219 126.855469 142.003906 C 126.78125 141.984375 126.699219 142.101562 126.683594 142.15625 C 126.621094 142.136719 126.515625 142.238281 126.535156 142.300781 C 126.488281 142.320312 126.464844 142.347656 126.433594 142.390625 C 126.457031 142.433594 126.472656 142.46875 126.496094 142.503906 " fill-opacity="1" fill-rule="evenodd"/></g></g></g><g clip-path="url(#f5c29b1a6d)"><g clip-path="url(#635436ea5c)"><g clip-path="url(#e279512d09)"><path fill="#b4761a" d="M 131.285156 130.421875 C 131.3125 130.421875 131.332031 130.421875 131.363281 130.417969 C 131.371094 130.390625 131.378906 130.371094 131.375 130.339844 C 131.410156 130.332031 131.429688 130.246094 131.398438 130.222656 C 131.421875 130.195312 131.453125 130.117188 131.421875 130.085938 C 131.445312 130.0625 131.445312 130.042969 131.449219 130.011719 C 131.902344 130.382812 131.863281 131.121094 132.207031 131.589844 C 132.324219 131.753906 132.363281 131.757812 132.542969 131.792969 C 132.699219 131.6875 132.792969 131.609375 132.992188 131.671875 C 133.417969 131.800781 133.664062 132.46875 133.867188 132.300781 C 133.949219 132.238281 133.765625 131.976562 133.667969 131.722656 C 133.582031 131.507812 133.277344 130.816406 133.570312 130.664062 C 133.585938 130.65625 133.601562 130.652344 133.617188 130.644531 C 133.542969 130.472656 133.496094 130.285156 133.699219 130.1875 C 133.53125 130.011719 133.375 129.832031 133.207031 129.65625 C 133.515625 129.652344 133.9375 129.714844 134.03125 129.445312 C 134.097656 129.261719 134.070312 129.394531 134.183594 129.25 C 134.324219 129.0625 134.253906 128.949219 134.277344 128.859375 C 134.304688 128.753906 134.519531 128.601562 134.5 128.195312 C 134.488281 127.980469 134.632812 127.789062 134.652344 127.574219 C 134.664062 127.480469 134.640625 127.414062 134.59375 127.335938 C 134.929688 126.699219 133.707031 126.648438 133.34375 126.820312 C 133.027344 126.976562 132.675781 127.238281 132.46875 127.425781 C 132.058594 127.792969 131.726562 128.222656 131.414062 128.671875 C 131.398438 128.632812 131.371094 128.628906 131.335938 128.625 C 131.433594 128.601562 131.433594 128.414062 131.324219 128.433594 L 131.3125 128.417969 C 131.507812 128.171875 131.640625 128.308594 131.835938 127.929688 C 131.847656 127.90625 131.84375 127.886719 131.832031 127.859375 C 131.828125 127.859375 131.824219 127.863281 131.820312 127.863281 C 131.75 127.96875 131.847656 128.074219 131.480469 128.261719 C 131.40625 128.300781 131.359375 128.347656 131.3125 128.417969 C 131.28125 128.371094 131.257812 128.328125 131.246094 128.273438 L 131.203125 128.277344 C 131.195312 128.332031 131.171875 128.375 131.144531 128.421875 C 131.09375 128.355469 131.046875 128.3125 130.96875 128.277344 C 130.589844 128.113281 130.683594 128.003906 130.605469 127.898438 C 130.601562 127.898438 130.597656 127.898438 130.59375 127.898438 C 130.582031 127.925781 130.582031 127.945312 130.59375 127.972656 C 130.808594 128.335938 130.9375 128.191406 131.144531 128.421875 L 131.132812 128.4375 C 131.023438 128.425781 131.03125 128.613281 131.132812 128.628906 C 131.097656 128.636719 131.070312 128.644531 131.058594 128.679688 C 130.71875 128.253906 130.363281 127.84375 129.933594 127.503906 C 129.714844 127.328125 129.351562 127.089844 129.023438 126.957031 C 128.652344 126.804688 127.4375 126.933594 127.804688 127.546875 C 127.765625 127.628906 127.746094 127.699219 127.761719 127.789062 C 127.792969 128.003906 127.949219 128.1875 127.949219 128.402344 C 127.953125 128.804688 128.175781 128.945312 128.207031 129.050781 C 128.238281 129.140625 128.171875 129.253906 128.328125 129.433594 C 128.445312 129.570312 128.410156 129.441406 128.488281 129.621094 C 128.597656 129.882812 129.015625 129.796875 129.324219 129.777344 C 129.167969 129.964844 129.019531 130.15625 128.863281 130.339844 C 129.070312 130.425781 129.035156 130.613281 128.972656 130.792969 C 128.988281 130.796875 129.003906 130.800781 129.019531 130.808594 C 129.320312 130.941406 129.054688 131.648438 128.984375 131.871094 C 128.898438 132.128906 128.730469 132.402344 128.816406 132.460938 C 129.027344 132.613281 129.238281 131.933594 129.65625 131.777344 C 129.847656 131.703125 129.945312 131.773438 130.109375 131.871094 C 130.285156 131.824219 130.324219 131.816406 130.433594 131.648438 C 130.75 131.15625 130.667969 130.421875 131.101562 130.023438 C 131.105469 130.050781 131.105469 130.074219 131.132812 130.09375 C 131.101562 130.128906 131.136719 130.203125 131.160156 130.230469 C 131.132812 130.253906 131.15625 130.339844 131.191406 130.34375 C 131.191406 130.375 131.195312 130.394531 131.210938 130.421875 C 131.238281 130.425781 131.261719 130.425781 131.285156 130.421875 " fill-opacity="1" fill-rule="evenodd"/></g></g></g><g clip-path="url(#078b71a600)"><g clip-path="url(#411155c8be)"><g clip-path="url(#b1464f9dad)"><path fill="#b4761a" d="M 37.992188 165.558594 C 38.042969 165.519531 38.085938 165.476562 38.140625 165.421875 C 38.113281 165.347656 38.09375 165.296875 38.035156 165.242188 C 38.097656 165.164062 37.988281 164.960938 37.886719 164.960938 C 37.894531 164.871094 37.828125 164.664062 37.707031 164.652344 C 37.71875 164.570312 37.683594 164.523438 37.640625 164.457031 C 39.179688 164.457031 40.324219 166.007812 41.808594 166.390625 C 42.316406 166.523438 42.398438 166.46875 42.820312 166.25 C 42.96875 165.765625 43.027344 165.457031 43.53125 165.253906 C 44.617188 164.8125 46.222656 165.75 46.367188 165.078125 C 46.421875 164.8125 45.613281 164.589844 44.996094 164.242188 C 44.460938 163.941406 42.695312 163.050781 43.039062 162.257812 C 43.058594 162.222656 43.078125 162.183594 43.097656 162.148438 C 42.664062 161.914062 42.261719 161.621094 42.511719 161.089844 C 41.882812 161.007812 41.257812 160.902344 40.628906 160.824219 C 41.25 160.3125 42.210938 159.738281 41.960938 159.035156 C 41.785156 158.554688 41.949219 158.863281 41.933594 158.390625 C 41.914062 157.773438 41.589844 157.664062 41.484375 157.441406 C 41.363281 157.183594 41.542969 156.515625 40.835938 155.738281 C 40.453125 155.316406 40.425781 154.691406 40.109375 154.222656 C 39.976562 154.023438 39.816406 153.921875 39.597656 153.835938 C 39.21875 152 36.652344 153.917969 36.199219 154.875 C 35.808594 155.710938 35.53125 156.816406 35.417969 157.542969 C 35.199219 158.960938 35.238281 160.382812 35.339844 161.804688 C 35.257812 161.753906 35.1875 161.789062 35.113281 161.835938 C 35.273438 161.628906 34.960938 161.253906 34.769531 161.472656 L 34.722656 161.460938 C 34.703125 160.644531 35.210938 160.695312 34.972656 159.613281 C 34.957031 159.542969 34.921875 159.507812 34.851562 159.476562 C 34.84375 159.484375 34.832031 159.492188 34.824219 159.5 C 34.859375 159.832031 35.238281 159.882812 34.800781 160.871094 C 34.710938 161.070312 34.691406 161.242188 34.71875 161.460938 C 34.574219 161.421875 34.460938 161.375 34.347656 161.28125 L 34.257812 161.359375 C 34.335938 161.484375 34.363281 161.605469 34.382812 161.75 C 34.171875 161.695312 34 161.6875 33.785156 161.75 C 32.746094 162.046875 32.746094 161.664062 32.421875 161.585938 C 32.414062 161.589844 32.40625 161.597656 32.398438 161.605469 C 32.417969 161.679688 32.445312 161.722656 32.515625 161.746094 C 33.558594 162.128906 33.574219 161.625 34.382812 161.753906 L 34.386719 161.804688 C 34.144531 161.960938 34.476562 162.320312 34.703125 162.191406 C 34.644531 162.257812 34.601562 162.324219 34.640625 162.414062 C 33.242188 162.117188 31.835938 161.878906 30.402344 161.898438 C 29.664062 161.910156 28.527344 162.03125 27.644531 162.300781 C 26.632812 162.613281 24.375 164.886719 26.144531 165.515625 C 26.195312 165.746094 26.273438 165.914062 26.453125 166.074219 C 26.878906 166.453125 27.492188 166.566406 27.855469 167.003906 C 28.53125 167.8125 29.21875 167.726562 29.457031 167.882812 C 29.664062 168.015625 29.726562 168.351562 30.335938 168.460938 C 30.800781 168.539062 30.519531 168.335938 30.972656 168.574219 C 31.632812 168.917969 32.335938 168.046875 32.929688 167.503906 C 32.921875 168.136719 32.9375 168.773438 32.933594 169.40625 C 33.496094 169.230469 33.730469 169.671875 33.902344 170.132812 C 33.941406 170.117188 33.980469 170.105469 34.019531 170.089844 C 34.851562 169.859375 35.492188 171.726562 35.714844 172.296875 C 35.972656 172.957031 36.085938 173.785156 36.351562 173.769531 C 37.039062 173.722656 36.332031 172.003906 36.921875 170.992188 C 37.195312 170.519531 37.507812 170.507812 38.007812 170.425781 C 38.285156 170.039062 38.347656 169.964844 38.289062 169.445312 C 38.113281 167.925781 36.738281 166.582031 36.949219 165.054688 C 37.007812 165.105469 37.050781 165.148438 37.136719 165.152344 C 37.128906 165.269531 37.324219 165.363281 37.417969 165.371094 C 37.402344 165.472656 37.585938 165.605469 37.675781 165.554688 C 37.71875 165.621094 37.765625 165.648438 37.839844 165.683594 C 37.902344 165.640625 37.945312 165.605469 37.992188 165.558594 " fill-opacity="1" fill-rule="evenodd"/></g></g></g><g clip-path="url(#528431aaae)"><g clip-path="url(#ed664a03ad)"><g clip-path="url(#f1ca3255cd)"><path fill="#b4761a" d="M 18.347656 161.703125 C 18.339844 161.664062 18.332031 161.632812 18.316406 161.589844 C 18.273438 161.582031 18.238281 161.578125 18.195312 161.59375 C 18.171875 161.539062 18.035156 161.539062 18.007812 161.589844 C 17.960938 161.5625 17.835938 161.535156 17.796875 161.59375 C 17.757812 161.566406 17.722656 161.570312 17.675781 161.574219 C 18.113281 160.78125 19.238281 160.628906 19.855469 159.972656 C 20.066406 159.75 20.066406 159.691406 20.070312 159.410156 C 19.863281 159.199219 19.71875 159.078125 19.757812 158.761719 C 19.835938 158.078125 20.773438 157.515625 20.46875 157.25 C 20.347656 157.148438 20 157.5 19.648438 157.71875 C 19.339844 157.910156 18.378906 158.570312 18.066406 158.164062 C 18.054688 158.144531 18.042969 158.125 18.027344 158.105469 C 17.785156 158.261719 17.519531 158.386719 17.3125 158.105469 C 17.09375 158.40625 16.863281 158.699219 16.644531 159.003906 C 16.554688 158.535156 16.527344 157.878906 16.09375 157.808594 C 15.796875 157.761719 16.003906 157.765625 15.753906 157.640625 C 15.429688 157.472656 15.28125 157.609375 15.136719 157.601562 C 14.96875 157.59375 14.675781 157.308594 14.070312 157.453125 C 13.746094 157.53125 13.414062 157.367188 13.082031 157.398438 C 12.941406 157.410156 12.84375 157.464844 12.738281 157.554688 C 11.679688 157.226562 11.945312 159.09375 12.3125 159.597656 C 12.632812 160.039062 13.128906 160.492188 13.472656 160.757812 C 14.140625 161.273438 14.890625 161.65625 15.65625 162.007812 C 15.605469 162.035156 15.601562 162.082031 15.605469 162.136719 C 15.542969 161.992188 15.257812 162.046875 15.320312 162.207031 L 15.300781 162.230469 C 14.871094 162.003906 15.042969 161.761719 14.417969 161.574219 C 14.375 161.5625 14.347656 161.570312 14.3125 161.601562 C 14.3125 161.605469 14.3125 161.613281 14.316406 161.617188 C 14.496094 161.695312 14.632812 161.515625 15.015625 162.023438 C 15.09375 162.125 15.179688 162.183594 15.300781 162.230469 C 15.238281 162.292969 15.183594 162.339844 15.101562 162.371094 L 15.117188 162.4375 C 15.203125 162.433594 15.273438 162.453125 15.355469 162.484375 C 15.265625 162.578125 15.214844 162.667969 15.183594 162.792969 C 15.042969 163.414062 14.847656 163.304688 14.714844 163.449219 C 14.714844 163.457031 14.714844 163.460938 14.71875 163.46875 C 14.761719 163.480469 14.792969 163.476562 14.824219 163.445312 C 15.316406 163.019531 15.058594 162.867188 15.355469 162.488281 L 15.382812 162.5 C 15.394531 162.667969 15.675781 162.601562 15.675781 162.445312 C 15.691406 162.496094 15.714844 162.535156 15.769531 162.539062 C 15.222656 163.175781 14.699219 163.835938 14.304688 164.582031 C 14.101562 164.964844 13.84375 165.582031 13.734375 166.117188 C 13.605469 166.726562 14.144531 168.535156 14.96875 167.800781 C 15.105469 167.839844 15.214844 167.847656 15.347656 167.800781 C 15.664062 167.691406 15.894531 167.402344 16.222656 167.339844 C 16.832031 167.222656 16.984375 166.84375 17.132812 166.765625 C 17.257812 166.695312 17.453125 166.761719 17.679688 166.476562 C 17.851562 166.257812 17.667969 166.34375 17.917969 166.179688 C 18.285156 165.9375 18.03125 165.328125 17.921875 164.867188 C 18.246094 165.050781 18.578125 165.222656 18.902344 165.40625 C 18.972656 165.0625 19.265625 165.066406 19.554688 165.109375 C 19.558594 165.085938 19.5625 165.0625 19.566406 165.039062 C 19.683594 164.542969 20.832031 164.742188 21.1875 164.789062 C 21.601562 164.84375 22.0625 165.023438 22.128906 164.878906 C 22.300781 164.511719 21.210938 164.386719 20.851562 163.796875 C 20.6875 163.523438 20.769531 163.359375 20.871094 163.078125 C 20.746094 162.824219 20.726562 162.769531 20.441406 162.652344 C 19.605469 162.3125 18.519531 162.640625 17.789062 162.097656 C 17.835938 162.082031 17.867188 162.074219 17.894531 162.03125 C 17.953125 162.070312 18.054688 161.992188 18.085938 161.945312 C 18.132812 161.984375 18.253906 161.925781 18.253906 161.867188 C 18.300781 161.863281 18.328125 161.847656 18.367188 161.820312 C 18.363281 161.773438 18.355469 161.742188 18.347656 161.703125 " fill-opacity="1" fill-rule="evenodd"/></g></g></g><g clip-path="url(#2c14251622)"><g clip-path="url(#04a3321211)"><g clip-path="url(#19217ef8bd)"><path fill="#b4761a" d="M 86.117188 145.292969 C 84.925781 144.125 85.960938 140.515625 86.15625 137.601562 C 85.511719 138.914062 84.871094 140.226562 84.226562 141.539062 C 79.488281 148.839844 81.175781 144.882812 78.949219 143.980469 C 70.714844 149.949219 76.390625 145.804688 78.617188 143.507812 C 78.554688 143.320312 78.492188 143.128906 78.433594 142.941406 C 77.625 142.496094 76.109375 141.910156 77.449219 141.03125 C 76.675781 140.152344 76.320312 139.699219 77.648438 138.910156 C 75.800781 136.699219 83.804688 136.214844 84.714844 136.0625 C 82.222656 136.078125 80.40625 136.308594 77.941406 136.804688 C 74.765625 135.398438 77.21875 130.6875 75.847656 126.722656 C 77.851562 124.515625 85.292969 131.433594 86.128906 135.195312 C 86.175781 135.105469 86.21875 135.042969 86.261719 134.992188 C 86.296875 134.792969 86.417969 134.597656 86.289062 134.492188 C 86.105469 134.355469 86.191406 134.136719 86.328125 134.054688 C 84.71875 126.160156 82.519531 127.105469 81.320312 126.953125 C 84.675781 126.542969 85.390625 129.871094 86.46875 133.933594 C 86.554688 133.765625 86.808594 133.800781 86.839844 133.984375 C 87.988281 129.699219 89.246094 126.53125 92.277344 127.027344 C 91.855469 127.234375 88.949219 125.613281 86.980469 134.097656 C 87.09375 134.199219 87.144531 134.402344 86.964844 134.519531 C 86.796875 134.632812 86.929688 134.816406 86.949219 135.070312 C 86.988281 135.125 87.027344 135.1875 87.0625 135.28125 C 88.269531 131.621094 96.402344 125.25 98.175781 127.648438 C 96.414062 131.453125 98.378906 136.390625 95.078125 137.46875 C 92.671875 136.726562 90.890625 136.3125 88.414062 136.046875 C 89.304688 136.292969 97.214844 137.582031 95.15625 139.59375 C 96.398438 140.511719 96 140.925781 95.144531 141.722656 C 96.382812 142.734375 94.816406 143.164062 93.972656 143.527344 C 93.890625 143.707031 93.8125 143.886719 93.730469 144.070312 C 95.714844 146.578125 100.945312 151.277344 93.351562 144.503906 C 91.046875 145.179688 92.324219 149.285156 88.347656 141.542969 C 87.839844 140.171875 87.339844 138.976562 86.832031 137.605469 C 86.730469 140.402344 87.445312 144.515625 86.117188 145.292969 " fill-opacity="1" fill-rule="evenodd"/></g></g></g><g clip-path="url(#b89e947a81)"><g clip-path="url(#86dde7eef1)"><g clip-path="url(#bd942d1b43)"><path fill="#b4761a" d="M 61.339844 131.480469 C 61.308594 131.472656 61.277344 131.46875 61.246094 131.460938 C 62.40625 129.742188 62.5625 127.589844 62.683594 125.582031 C 62.882812 124.222656 61.972656 124.226562 62.519531 125.625 C 62.417969 127.4375 62.347656 128.398438 61.757812 130.308594 C 62.085938 128.835938 62.292969 127.269531 61.945312 125.796875 C 62.019531 124.546875 61.042969 124.378906 61.789062 125.871094 C 62.175781 127.234375 61.953125 130.105469 61.09375 131.460938 C 60.726562 131.496094 60.640625 131.886719 60.582031 132.515625 C 60.253906 131.773438 62.523438 127.519531 55.378906 122.085938 C 55.296875 123.148438 54.644531 124.757812 55.894531 126.234375 C 56.644531 127.121094 55.222656 127.621094 56.238281 129.753906 C 55.007812 128.5 53.402344 126.558594 48.40625 126.191406 C 48.722656 127.8125 50.078125 129.222656 51.570312 130.074219 C 50.378906 132.03125 49.699219 135.558594 55 135.425781 C 53.460938 137.300781 53.722656 138.035156 53.953125 138.703125 C 54.1875 139.378906 54.867188 140.753906 52.691406 141.636719 C 54.992188 141.757812 56.347656 141.160156 56.878906 139.984375 C 57.265625 140.632812 56.917969 141.9375 55.40625 142.113281 C 59.5 143.140625 60.523438 137.023438 60.363281 134.636719 C 60.585938 135.421875 60.5625 136.351562 60.386719 137.273438 C 59.863281 140.058594 61.507812 140.398438 61.445312 137.261719 C 61.417969 135.917969 60.617188 133.734375 61.109375 132.816406 C 61.496094 132.105469 61.683594 131.683594 61.339844 131.480469 " fill-opacity="1" fill-rule="evenodd"/></g></g></g><g clip-path="url(#6e6cb5e2ee)"><g clip-path="url(#4ace167d24)"><g clip-path="url(#bf4f4b4c60)"><path fill="#b4761a" d="M 79.839844 179.023438 C 80.589844 177.550781 78.484375 174.484375 77.386719 171.804688 C 78.402344 172.835938 79.417969 173.867188 80.433594 174.898438 C 87.179688 180.273438 84.355469 177.085938 86.160156 175.539062 C 95.777344 178.566406 89.140625 176.453125 86.324219 174.992188 C 86.324219 174.792969 86.324219 174.597656 86.320312 174.402344 C 86.9375 173.730469 88.179688 172.703125 86.644531 172.296875 C 87.09375 171.226562 87.289062 170.691406 85.792969 170.367188 C 86.835938 167.710938 79.164062 169.765625 78.257812 169.90625 C 80.605469 169.136719 82.382812 168.789062 84.855469 168.480469 C 87.398438 166.160156 83.613281 162.503906 83.65625 158.347656 C 81.082031 156.902344 76.257812 165.738281 76.65625 169.539062 C 76.585938 169.464844 76.523438 169.421875 76.464844 169.386719 C 76.371094 169.210938 76.195312 169.066406 76.285156 168.925781 C 76.414062 168.738281 76.265625 168.558594 76.113281 168.527344 C 75.144531 160.601562 77.507812 160.800781 78.585938 160.28125 C 75.304688 160.949219 75.675781 164.300781 75.941406 168.457031 C 75.808594 168.328125 75.582031 168.4375 75.605469 168.621094 C 73.183594 164.953125 71.003906 162.371094 68.308594 163.789062 C 68.777344 163.851562 70.996094 161.414062 75.511719 168.773438 C 75.433594 168.902344 75.453125 169.109375 75.660156 169.160156 C 75.851562 169.214844 75.78125 169.429688 75.84375 169.675781 C 75.824219 169.738281 75.808594 169.8125 75.804688 169.90625 C 73.519531 166.847656 63.878906 163.414062 62.964844 166.222656 C 65.816406 169.246094 65.515625 174.5 68.957031 174.476562 C 70.984375 173.027344 72.527344 172.082031 74.773438 171.054688 C 74.015625 171.5625 66.984375 175.257812 69.550781 176.5 C 68.671875 177.753906 69.179688 178.019531 70.234375 178.496094 C 69.386719 179.839844 70.992188 179.75 71.902344 179.824219 C 72.035156 179.972656 72.164062 180.117188 72.296875 180.261719 C 71.21875 183.242188 67.78125 189.300781 72.789062 180.550781 C 75.167969 180.460938 75.257812 184.722656 76.566406 176.199219 C 76.609375 174.75 76.707031 173.46875 76.753906 172.019531 C 77.722656 174.621094 78.34375 178.707031 79.839844 179.023438 " fill-opacity="1" fill-rule="evenodd"/></g></g></g><g fill="#b4761a" fill-opacity="1"><g transform="translate(133.483531, 263.275921)"><g><path d="M 10.890625 -5.640625 C 10.890625 -1.742188 9.515625 0.203125 6.765625 0.203125 C 5.921875 0.203125 5.21875 0.0507812 4.65625 -0.25 C 4.09375 -0.5625 3.632812 -1.054688 3.28125 -1.734375 L 3.265625 -1.734375 C 3.265625 -1.523438 3.25 -1.203125 3.21875 -0.765625 C 3.195312 -0.328125 3.175781 -0.0703125 3.15625 0 L 1.359375 0 C 1.398438 -0.375 1.421875 -1.144531 1.421875 -2.3125 L 1.421875 -15.34375 L 3.28125 -15.34375 L 3.28125 -10.96875 C 3.28125 -10.519531 3.269531 -9.992188 3.25 -9.390625 L 3.28125 -9.390625 C 3.625 -10.109375 4.082031 -10.617188 4.65625 -10.921875 C 5.226562 -11.234375 5.929688 -11.390625 6.765625 -11.390625 C 8.179688 -11.390625 9.222656 -10.910156 9.890625 -9.953125 C 10.554688 -9.003906 10.890625 -7.566406 10.890625 -5.640625 Z M 8.9375 -5.578125 C 8.9375 -7.140625 8.726562 -8.257812 8.3125 -8.9375 C 7.894531 -9.613281 7.222656 -9.953125 6.296875 -9.953125 C 5.242188 -9.953125 4.476562 -9.59375 4 -8.875 C 3.519531 -8.164062 3.28125 -7.03125 3.28125 -5.46875 C 3.28125 -4 3.515625 -2.914062 3.984375 -2.21875 C 4.453125 -1.519531 5.21875 -1.171875 6.28125 -1.171875 C 7.21875 -1.171875 7.894531 -1.515625 8.3125 -2.203125 C 8.726562 -2.898438 8.9375 -4.023438 8.9375 -5.578125 Z M 8.9375 -5.578125 "/></g></g></g><g fill="#b4761a" fill-opacity="1"><g transform="translate(147.433558, 263.275921)"><g><path d="M 10.890625 -5.609375 C 10.890625 -3.648438 10.457031 -2.191406 9.59375 -1.234375 C 8.726562 -0.273438 7.476562 0.203125 5.84375 0.203125 C 4.207031 0.203125 2.972656 -0.289062 2.140625 -1.28125 C 1.304688 -2.28125 0.890625 -3.722656 0.890625 -5.609375 C 0.890625 -9.460938 2.5625 -11.390625 5.90625 -11.390625 C 7.613281 -11.390625 8.867188 -10.914062 9.671875 -9.96875 C 10.484375 -9.03125 10.890625 -7.578125 10.890625 -5.609375 Z M 8.9375 -5.609375 C 8.9375 -7.148438 8.707031 -8.269531 8.25 -8.96875 C 7.789062 -9.664062 7.019531 -10.015625 5.9375 -10.015625 C 4.84375 -10.015625 4.050781 -9.65625 3.5625 -8.9375 C 3.082031 -8.226562 2.84375 -7.117188 2.84375 -5.609375 C 2.84375 -4.128906 3.082031 -3.019531 3.5625 -2.28125 C 4.039062 -1.539062 4.789062 -1.171875 5.8125 -1.171875 C 6.9375 -1.171875 7.738281 -1.523438 8.21875 -2.234375 C 8.695312 -2.953125 8.9375 -4.078125 8.9375 -5.609375 Z M 8.9375 -5.609375 "/></g></g></g><g fill="#b4761a" fill-opacity="1"><g transform="translate(161.383585, 263.275921)"><g><path d="M 10.890625 -5.609375 C 10.890625 -3.648438 10.457031 -2.191406 9.59375 -1.234375 C 8.726562 -0.273438 7.476562 0.203125 5.84375 0.203125 C 4.207031 0.203125 2.972656 -0.289062 2.140625 -1.28125 C 1.304688 -2.28125 0.890625 -3.722656 0.890625 -5.609375 C 0.890625 -9.460938 2.5625 -11.390625 5.90625 -11.390625 C 7.613281 -11.390625 8.867188 -10.914062 9.671875 -9.96875 C 10.484375 -9.03125 10.890625 -7.578125 10.890625 -5.609375 Z M 8.9375 -5.609375 C 8.9375 -7.148438 8.707031 -8.269531 8.25 -8.96875 C 7.789062 -9.664062 7.019531 -10.015625 5.9375 -10.015625 C 4.84375 -10.015625 4.050781 -9.65625 3.5625 -8.9375 C 3.082031 -8.226562 2.84375 -7.117188 2.84375 -5.609375 C 2.84375 -4.128906 3.082031 -3.019531 3.5625 -2.28125 C 4.039062 -1.539062 4.789062 -1.171875 5.8125 -1.171875 C 6.9375 -1.171875 7.738281 -1.523438 8.21875 -2.234375 C 8.695312 -2.953125 8.9375 -4.078125 8.9375 -5.609375 Z M 8.9375 -5.609375 "/></g></g></g><g fill="#b4761a" fill-opacity="1"><g transform="translate(175.333612, 263.275921)"><g><path d="M 8.4375 0 L 4.65625 -5.109375 L 3.28125 -3.984375 L 3.28125 0 L 1.421875 0 L 1.421875 -15.34375 L 3.28125 -15.34375 L 3.28125 -5.765625 L 8.203125 -11.1875 L 10.375 -11.1875 L 5.84375 -6.375 L 10.609375 0 Z M 8.4375 0 "/></g></g></g><g fill="#b4761a" fill-opacity="1"><g transform="translate(188.095306, 263.275921)"><g/></g></g><g fill="#b4761a" fill-opacity="1"><g transform="translate(196.155379, 263.275921)"><g><path d="M 2.84375 -5.640625 C 2.84375 -4.148438 3.078125 -3.046875 3.546875 -2.328125 C 4.015625 -1.617188 4.722656 -1.265625 5.671875 -1.265625 C 6.328125 -1.265625 6.875 -1.441406 7.3125 -1.796875 C 7.757812 -2.160156 8.035156 -2.710938 8.140625 -3.453125 L 10.03125 -3.328125 C 9.882812 -2.253906 9.425781 -1.394531 8.65625 -0.75 C 7.882812 -0.113281 6.90625 0.203125 5.71875 0.203125 C 4.15625 0.203125 2.960938 -0.289062 2.140625 -1.28125 C 1.316406 -2.269531 0.90625 -3.710938 0.90625 -5.609375 C 0.90625 -7.484375 1.316406 -8.914062 2.140625 -9.90625 C 2.960938 -10.894531 4.148438 -11.390625 5.703125 -11.390625 C 6.835938 -11.390625 7.78125 -11.09375 8.53125 -10.5 C 9.289062 -9.90625 9.769531 -9.085938 9.96875 -8.046875 L 8.046875 -7.90625 C 7.953125 -8.53125 7.707031 -9.023438 7.3125 -9.390625 C 6.925781 -9.753906 6.367188 -9.9375 5.640625 -9.9375 C 4.660156 -9.9375 3.945312 -9.609375 3.5 -8.953125 C 3.0625 -8.296875 2.84375 -7.191406 2.84375 -5.640625 Z M 2.84375 -5.640625 "/></g></g></g><g fill="#b4761a" fill-opacity="1"><g transform="translate(208.917077, 263.275921)"><g><path d="M 1.421875 0 L 1.421875 -15.34375 L 3.28125 -15.34375 L 3.28125 0 Z M 1.421875 0 "/></g></g></g><g fill="#b4761a" fill-opacity="1"><g transform="translate(215.799158, 263.275921)"><g><path d="M 3.25 -11.1875 L 3.25 -4.09375 C 3.25 -3.351562 3.320312 -2.78125 3.46875 -2.375 C 3.613281 -1.96875 3.84375 -1.675781 4.15625 -1.5 C 4.46875 -1.320312 4.929688 -1.234375 5.546875 -1.234375 C 6.441406 -1.234375 7.148438 -1.539062 7.671875 -2.15625 C 8.191406 -2.769531 8.453125 -3.617188 8.453125 -4.703125 L 8.453125 -11.1875 L 10.3125 -11.1875 L 10.3125 -2.390625 C 10.3125 -1.085938 10.332031 -0.289062 10.375 0 L 8.609375 0 C 8.597656 -0.03125 8.585938 -0.117188 8.578125 -0.265625 C 8.578125 -0.421875 8.570312 -0.597656 8.5625 -0.796875 C 8.550781 -0.992188 8.539062 -1.363281 8.53125 -1.90625 L 8.5 -1.90625 C 8.070312 -1.132812 7.578125 -0.585938 7.015625 -0.265625 C 6.453125 0.046875 5.753906 0.203125 4.921875 0.203125 C 3.691406 0.203125 2.789062 -0.0976562 2.21875 -0.703125 C 1.65625 -1.316406 1.375 -2.328125 1.375 -3.734375 L 1.375 -11.1875 Z M 3.25 -11.1875 "/></g></g></g><g fill="#b4761a" fill-opacity="1"><g transform="translate(229.749184, 263.275921)"><g><path d="M 10.890625 -5.640625 C 10.890625 -1.742188 9.515625 0.203125 6.765625 0.203125 C 5.921875 0.203125 5.21875 0.0507812 4.65625 -0.25 C 4.09375 -0.5625 3.632812 -1.054688 3.28125 -1.734375 L 3.265625 -1.734375 C 3.265625 -1.523438 3.25 -1.203125 3.21875 -0.765625 C 3.195312 -0.328125 3.175781 -0.0703125 3.15625 0 L 1.359375 0 C 1.398438 -0.375 1.421875 -1.144531 1.421875 -2.3125 L 1.421875 -15.34375 L 3.28125 -15.34375 L 3.28125 -10.96875 C 3.28125 -10.519531 3.269531 -9.992188 3.25 -9.390625 L 3.28125 -9.390625 C 3.625 -10.109375 4.082031 -10.617188 4.65625 -10.921875 C 5.226562 -11.234375 5.929688 -11.390625 6.765625 -11.390625 C 8.179688 -11.390625 9.222656 -10.910156 9.890625 -9.953125 C 10.554688 -9.003906 10.890625 -7.566406 10.890625 -5.640625 Z M 8.9375 -5.578125 C 8.9375 -7.140625 8.726562 -8.257812 8.3125 -8.9375 C 7.894531 -9.613281 7.222656 -9.953125 6.296875 -9.953125 C 5.242188 -9.953125 4.476562 -9.59375 4 -8.875 C 3.519531 -8.164062 3.28125 -7.03125 3.28125 -5.46875 C 3.28125 -4 3.515625 -2.914062 3.984375 -2.21875 C 4.453125 -1.519531 5.21875 -1.171875 6.28125 -1.171875 C 7.21875 -1.171875 7.894531 -1.515625 8.3125 -2.203125 C 8.726562 -2.898438 8.9375 -4.023438 8.9375 -5.578125 Z M 8.9375 -5.578125 "/></g></g></g><g fill="#ffffff" fill-opacity="1"><g transform="translate(168.862995, 216.776792)"><g><path d="M 2.328125 0 L 2.328125 -26.75 L 13.03125 -26.75 C 15.988281 -26.75 18.207031 -26.101562 19.6875 -24.8125 C 21.175781 -23.53125 21.921875 -21.890625 21.921875 -19.890625 C 21.921875 -18.316406 21.460938 -17.039062 20.546875 -16.0625 C 19.628906 -15.09375 18.472656 -14.453125 17.078125 -14.140625 L 17.078125 -13.890625 C 18.097656 -13.835938 19.054688 -13.546875 19.953125 -13.015625 C 20.847656 -12.484375 21.570312 -11.742188 22.125 -10.796875 C 22.6875 -9.847656 22.96875 -8.710938 22.96875 -7.390625 C 22.96875 -5.972656 22.613281 -4.707031 21.90625 -3.59375 C 21.207031 -2.476562 20.175781 -1.597656 18.8125 -0.953125 C 17.445312 -0.316406 15.757812 0 13.75 0 Z M 7.984375 -4.625 L 12.59375 -4.625 C 14.175781 -4.625 15.328125 -4.925781 16.046875 -5.53125 C 16.765625 -6.144531 17.125 -6.953125 17.125 -7.953125 C 17.125 -9.054688 16.726562 -9.960938 15.9375 -10.671875 C 15.15625 -11.378906 14.082031 -11.734375 12.71875 -11.734375 L 7.984375 -11.734375 Z M 7.984375 -15.5625 L 12.171875 -15.5625 C 13.328125 -15.5625 14.285156 -15.863281 15.046875 -16.46875 C 15.816406 -17.070312 16.203125 -17.898438 16.203125 -18.953125 C 16.203125 -19.921875 15.859375 -20.695312 15.171875 -21.28125 C 14.492188 -21.875 13.53125 -22.171875 12.28125 -22.171875 L 7.984375 -22.171875 Z M 7.984375 -15.5625 "/></g></g></g><g fill="#ffffff" fill-opacity="1"><g transform="translate(195.083566, 216.776792)"><g><path d="M 2.21875 0 L 2.21875 -20.0625 L 7.78125 -20.0625 L 7.78125 0 Z M 5.015625 -22.65625 C 4.191406 -22.65625 3.484375 -22.929688 2.890625 -23.484375 C 2.296875 -24.035156 2 -24.695312 2 -25.46875 C 2 -26.238281 2.296875 -26.898438 2.890625 -27.453125 C 3.484375 -28.003906 4.191406 -28.28125 5.015625 -28.28125 C 5.835938 -28.28125 6.546875 -28.003906 7.140625 -27.453125 C 7.734375 -26.898438 8.03125 -26.238281 8.03125 -25.46875 C 8.03125 -24.695312 7.734375 -24.035156 7.140625 -23.484375 C 6.546875 -22.929688 5.835938 -22.65625 5.015625 -22.65625 Z M 5.015625 -22.65625 "/></g></g></g><g fill="#ffffff" fill-opacity="1"><g transform="translate(207.001752, 216.776792)"><g><path d="M 2.328125 0 L 2.328125 -26.75 L 7.890625 -26.75 L 7.890625 -16.6875 L 8.0625 -16.6875 C 8.3125 -17.238281 8.664062 -17.789062 9.125 -18.34375 C 9.59375 -18.90625 10.203125 -19.375 10.953125 -19.75 C 11.710938 -20.132812 12.648438 -20.328125 13.765625 -20.328125 C 15.234375 -20.328125 16.582031 -19.941406 17.8125 -19.171875 C 19.039062 -18.410156 20.023438 -17.265625 20.765625 -15.734375 C 21.515625 -14.210938 21.890625 -12.300781 21.890625 -10 C 21.890625 -7.757812 21.523438 -5.867188 20.796875 -4.328125 C 20.078125 -2.796875 19.101562 -1.632812 17.875 -0.84375 C 16.65625 -0.0625 15.28125 0.328125 13.75 0.328125 C 12.675781 0.328125 11.757812 0.148438 11 -0.203125 C 10.25 -0.566406 9.632812 -1.019531 9.15625 -1.5625 C 8.6875 -2.101562 8.320312 -2.65625 8.0625 -3.21875 L 7.8125 -3.21875 L 7.8125 0 Z M 7.765625 -10.03125 C 7.765625 -8.25 8.132812 -6.8125 8.875 -5.71875 C 9.613281 -4.632812 10.648438 -4.09375 11.984375 -4.09375 C 13.359375 -4.09375 14.40625 -4.644531 15.125 -5.75 C 15.84375 -6.851562 16.203125 -8.28125 16.203125 -10.03125 C 16.203125 -11.769531 15.84375 -13.179688 15.125 -14.265625 C 14.40625 -15.347656 13.359375 -15.890625 11.984375 -15.890625 C 10.640625 -15.890625 9.597656 -15.359375 8.859375 -14.296875 C 8.128906 -13.242188 7.765625 -11.820312 7.765625 -10.03125 Z M 7.765625 -10.03125 "/></g></g></g><g fill="#ffffff" fill-opacity="1"><g transform="translate(232.281904, 216.776792)"><g><path d="M 7.78125 -26.75 L 7.78125 0 L 2.21875 0 L 2.21875 -26.75 Z M 7.78125 -26.75 "/></g></g></g><g fill="#ffffff" fill-opacity="1"><g transform="translate(244.200089, 216.776792)"><g><path d="M 2.21875 0 L 2.21875 -20.0625 L 7.78125 -20.0625 L 7.78125 0 Z M 5.015625 -22.65625 C 4.191406 -22.65625 3.484375 -22.929688 2.890625 -23.484375 C 2.296875 -24.035156 2 -24.695312 2 -25.46875 C 2 -26.238281 2.296875 -26.898438 2.890625 -27.453125 C 3.484375 -28.003906 4.191406 -28.28125 5.015625 -28.28125 C 5.835938 -28.28125 6.546875 -28.003906 7.140625 -27.453125 C 7.734375 -26.898438 8.03125 -26.238281 8.03125 -25.46875 C 8.03125 -24.695312 7.734375 -24.035156 7.140625 -23.484375 C 6.546875 -22.929688 5.835938 -22.65625 5.015625 -22.65625 Z M 5.015625 -22.65625 "/></g></g></g><g fill="#ffffff" fill-opacity="1"><g transform="translate(256.118275, 216.776792)"><g><path d="M 11.28125 0.390625 C 9.25 0.390625 7.492188 -0.0390625 6.015625 -0.90625 C 4.546875 -1.769531 3.410156 -2.976562 2.609375 -4.53125 C 1.804688 -6.09375 1.40625 -7.898438 1.40625 -9.953125 C 1.40625 -12.023438 1.804688 -13.835938 2.609375 -15.390625 C 3.410156 -16.941406 4.546875 -18.148438 6.015625 -19.015625 C 7.492188 -19.890625 9.25 -20.328125 11.28125 -20.328125 C 13.3125 -20.328125 15.0625 -19.890625 16.53125 -19.015625 C 18.007812 -18.148438 19.148438 -16.941406 19.953125 -15.390625 C 20.753906 -13.835938 21.15625 -12.023438 21.15625 -9.953125 C 21.15625 -7.898438 20.753906 -6.09375 19.953125 -4.53125 C 19.148438 -2.976562 18.007812 -1.769531 16.53125 -0.90625 C 15.0625 -0.0390625 13.3125 0.390625 11.28125 0.390625 Z M 11.3125 -3.921875 C 12.6875 -3.921875 13.726562 -4.492188 14.4375 -5.640625 C 15.144531 -6.785156 15.5 -8.234375 15.5 -9.984375 C 15.5 -11.742188 15.144531 -13.195312 14.4375 -14.34375 C 13.726562 -15.5 12.6875 -16.078125 11.3125 -16.078125 C 9.90625 -16.078125 8.84375 -15.5 8.125 -14.34375 C 7.414062 -13.195312 7.0625 -11.742188 7.0625 -9.984375 C 7.0625 -8.234375 7.414062 -6.785156 8.125 -5.640625 C 8.84375 -4.492188 9.90625 -3.921875 11.3125 -3.921875 Z M 11.3125 -3.921875 "/></g></g></g><g fill="#ffffff" fill-opacity="1"><g transform="translate(280.601667, 216.776792)"><g><path d="M 12.890625 -20.0625 L 12.890625 -15.890625 L 9.109375 -15.890625 L 9.109375 -6.171875 C 9.109375 -5.398438 9.28125 -4.878906 9.625 -4.609375 C 9.976562 -4.335938 10.4375 -4.203125 11 -4.203125 C 11.257812 -4.203125 11.519531 -4.222656 11.78125 -4.265625 C 12.039062 -4.316406 12.238281 -4.359375 12.375 -4.390625 L 13.25 -0.25 C 12.976562 -0.164062 12.585938 -0.0664062 12.078125 0.046875 C 11.578125 0.171875 10.960938 0.25 10.234375 0.28125 C 8.210938 0.363281 6.59375 -0.0703125 5.375 -1.03125 C 4.15625 -2 3.546875 -3.46875 3.546875 -5.4375 L 3.546875 -15.890625 L 0.8125 -15.890625 L 0.8125 -20.0625 L 3.546875 -20.0625 L 3.546875 -24.875 L 9.109375 -24.875 L 9.109375 -20.0625 Z M 12.890625 -20.0625 "/></g></g></g><g fill="#ffffff" fill-opacity="1"><g transform="translate(296.804045, 216.776792)"><g><path d="M 7.78125 -11.59375 L 7.78125 0 L 2.21875 0 L 2.21875 -26.75 L 7.625 -26.75 L 7.625 -16.515625 L 7.859375 -16.515625 C 8.328125 -17.703125 9.0625 -18.632812 10.0625 -19.3125 C 11.070312 -19.988281 12.335938 -20.328125 13.859375 -20.328125 C 15.953125 -20.328125 17.632812 -19.65625 18.90625 -18.3125 C 20.175781 -16.96875 20.804688 -15.125 20.796875 -12.78125 L 20.796875 0 L 15.234375 0 L 15.234375 -11.78125 C 15.242188 -13.019531 14.929688 -13.984375 14.296875 -14.671875 C 13.660156 -15.359375 12.78125 -15.703125 11.65625 -15.703125 C 10.519531 -15.703125 9.59375 -15.34375 8.875 -14.625 C 8.15625 -13.90625 7.789062 -12.894531 7.78125 -11.59375 Z M 7.78125 -11.59375 "/></g></g></g><g fill="#ffffff" fill-opacity="1"><g transform="translate(321.679288, 216.776792)"><g><path d="M 11.359375 0.390625 C 9.304688 0.390625 7.535156 -0.0234375 6.046875 -0.859375 C 4.554688 -1.703125 3.410156 -2.894531 2.609375 -4.4375 C 1.804688 -5.988281 1.40625 -7.820312 1.40625 -9.9375 C 1.40625 -12 1.804688 -13.8125 2.609375 -15.375 C 3.410156 -16.9375 4.539062 -18.148438 6 -19.015625 C 7.457031 -19.890625 9.171875 -20.328125 11.140625 -20.328125 C 12.910156 -20.328125 14.503906 -19.953125 15.921875 -19.203125 C 17.347656 -18.453125 18.476562 -17.320312 19.3125 -15.8125 C 20.15625 -14.300781 20.578125 -12.410156 20.578125 -10.140625 L 20.578125 -8.609375 L 6.90625 -8.609375 L 6.90625 -8.59375 C 6.90625 -7.09375 7.3125 -5.910156 8.125 -5.046875 C 8.945312 -4.191406 10.054688 -3.765625 11.453125 -3.765625 C 12.390625 -3.765625 13.195312 -3.957031 13.875 -4.34375 C 14.550781 -4.738281 15.03125 -5.320312 15.3125 -6.09375 L 20.453125 -5.75 C 20.054688 -3.882812 19.0625 -2.394531 17.46875 -1.28125 C 15.882812 -0.164062 13.847656 0.390625 11.359375 0.390625 Z M 6.90625 -12.0625 L 15.328125 -12.0625 C 15.328125 -13.25 14.945312 -14.226562 14.1875 -15 C 13.425781 -15.78125 12.441406 -16.171875 11.234375 -16.171875 C 9.992188 -16.171875 8.976562 -15.769531 8.1875 -14.96875 C 7.394531 -14.164062 6.96875 -13.195312 6.90625 -12.0625 Z M 6.90625 -12.0625 "/></g></g></g><g fill="#ffffff" fill-opacity="1"><g transform="translate(345.574915, 216.776792)"><g><path d="M 2.21875 0 L 2.21875 -26.75 L 7.78125 -26.75 L 7.78125 -12.453125 L 8.078125 -12.453125 L 14.515625 -20.0625 L 20.90625 -20.0625 L 13.453125 -11.375 L 21.28125 0 L 14.765625 0 L 9.28125 -8.078125 L 7.78125 -6.375 L 7.78125 0 Z M 2.21875 0 "/></g></g></g></svg>